<svg xmlns="http://www.w3.org/2000/svg" xmlns:xlink="http://www.w3.org/1999/xlink" id="ecommerce" x="0px" y="0px" viewBox="0 0 660 540" style="enable-background:new 0 0 660 540;" xml:space="preserve">
<g id="Group_2113" transform="translate(0 -0.2)">
	<path id="Path_1161" style="opacity:0.27;fill:#4A70D6;enable-background:new    ;" d="M390.3,503.6l71.3-41.1l5.9,3.4l-71.3,41.2   L390.3,503.6z"></path>
	<path id="Path_1162" style="opacity:0.4;fill:#A8C4E5;enable-background:new    ;" d="M382.9,427.4L105,267   c-3.2-1.8-2.8-5.2,0.9-7.3L239,182.9c3.7-2.2,9.4-2.4,12.6-0.5l277.9,160.4c3.2,1.8,2.8,5.2-0.9,7.3l-133.1,76.9   C391.8,429.1,386.1,429.3,382.9,427.4z"></path>
	<path id="Path_1163" style="fill:#8DB0DA;" d="M487.5,199.2L487.5,199.2v-1.5c0-0.1,0-0.2-0.1-0.3c0-0.1-0.1-0.2-0.1-0.3l0,0   c0-0.1-0.1-0.2-0.1-0.3s-0.1-0.2-0.1-0.3v-0.1c0-0.1,0-0.1-0.1-0.1c0-0.1-0.1-0.2-0.1-0.3s-0.1-0.1-0.1-0.2l0,0   c0-0.1-0.1-0.2-0.1-0.3c0-0.1-0.1-0.2-0.1-0.3c0-0.1,0-0.1-0.1-0.1v-0.1c0,0,0-0.1-0.1-0.1c0,0,0,0,0,0c-0.1-0.1-0.1-0.2-0.1-0.3   s-0.1-0.2-0.1-0.3l0,0v-0.1c-0.1-0.1-0.1-0.2-0.1-0.3s-0.1-0.1-0.1-0.3c0-0.1,0-0.1-0.1-0.1c0,0,0-0.1-0.1-0.1c0,0,0,0,0,0   c-0.1-0.2-0.2-0.3-0.3-0.4c0-0.1-0.1-0.1-0.1-0.1l0,0c-0.1-0.1-0.2-0.3-0.3-0.5l-0.1-0.1c0,0,0-0.1-0.1-0.1c0,0,0,0,0,0   c-0.1-0.1-0.1-0.1-0.1-0.1c-0.1-0.1-0.1-0.2-0.2-0.3l-0.1-0.1c0,0,0-0.1-0.1-0.1c0,0,0,0,0,0l-0.1-0.1c-0.1-0.1-0.2-0.2-0.2-0.3   l-0.2-0.2l0,0l-0.3-0.3c-0.1-0.1-0.2-0.2-0.3-0.2l0,0c-0.1-0.1-0.2-0.2-0.3-0.2c-0.1-0.1-0.2-0.1-0.3-0.2h-0.1   c-0.1-0.1-0.1-0.1-0.2-0.1c-0.1-0.1-0.2-0.1-0.3-0.2c0,0-0.1,0-0.1-0.1c0,0,0,0,0,0l0,0c-0.1-0.1-0.1-0.1-0.1-0.1   c-0.1-0.1-0.2-0.1-0.3-0.1l-1.5-0.9l-8.2,4.5c0,0,2,1.2,2,1.2s0.2,0.1,0.3,0.2s0.2,0.1,0.3,0.2s0.2,0.1,0.3,0.2   c0.1,0,0.1,0.1,0.1,0.1c0.1,0.1,0.3,0.2,0.4,0.3l0,0l0.4,0.4c0,0,0.1,0,0.1,0.1c0,0,0,0,0,0c0.1,0.1,0.2,0.3,0.3,0.4l0.1,0.1   c0.1,0.1,0.2,0.3,0.3,0.4l0.1,0.1c0.1,0.1,0.2,0.3,0.3,0.4c0.1,0.1,0.1,0.1,0.1,0.2c0.1,0.1,0.1,0.2,0.2,0.3   c0.1,0.1,0.1,0.2,0.2,0.3c0.1,0.1,0.1,0.1,0.1,0.2s0.1,0.1,0.1,0.2c0.1,0.1,0.1,0.2,0.2,0.3c0,0,0,0.1,0.1,0.1c0,0,0,0,0,0   c0.1,0.1,0.1,0.3,0.2,0.5v0.1c0.1,0.2,0.1,0.3,0.2,0.5v0.1c0.1,0.1,0.1,0.3,0.2,0.5v0.1c0.1,0.1,0.1,0.3,0.1,0.5v0.1   c0.1,0.1,0.1,0.3,0.1,0.5v0.1c0.1,0.1,0.1,0.3,0.1,0.5v0.1c0,0.2,0.1,0.3,0.1,0.5v0.1c0,0.2,0.1,0.3,0.1,0.5v1.2   c0,0.1,0,0.2-0.1,0.3c0,0.1,0,0.2-0.1,0.3c0,0.2,0,0.3-0.1,0.5l-28.4,175.7c-0.1,0.8-3.4,6.2-2.6,5.8l7.8-6.6   c1.6-1.4,2.7-3.3,3.1-5.4l27.9-172.4c0.1-0.8,0.3-2.1,0.3-2.1c0-0.1,0-0.2,0.1-0.3v-0.2l0,0v-0.4   C487.5,199.8,487.5,199.5,487.5,199.2L487.5,199.2z"></path>
	<g id="Group_2073" transform="translate(164.22 25.439)">
		<path id="Path_1164" style="fill:#FFFFFF;" d="M309.8,168.6c3.7,2.2,6.2,7.1,5.6,11l-28.9,178.2c-0.6,3.9-4.1,5.4-7.9,3.3    L5.7,203.5c-3.7-2.2-6.2-7.1-5.6-11L29,14.2c0.6-3.9,4.1-5.4,7.9-3.3L309.8,168.6z"></path>
	</g>
	<path id="Path_1165" style="fill:#A8C4E5;" d="M483.5,167.8L212.9,11.6l0,0l-0.4-0.2l0,0c-0.2-0.2-0.5-0.3-0.7-0.4   c-0.1-0.1-0.2-0.1-0.3-0.1s-0.2-0.1-0.3-0.1s-0.2-0.1-0.3-0.1c-0.1-0.1-0.2-0.1-0.3-0.1c-0.1-0.1-0.2-0.1-0.3-0.1   c-0.1,0-0.2-0.1-0.3-0.1l0,0c-0.1,0-0.2-0.1-0.3-0.1h-1.6c-0.1,0-0.2,0-0.3,0.1h-0.1c-0.2,0.1-0.3,0.1-0.5,0.1h-0.1   c-0.2,0.1-0.5,0.2-0.7,0.3l-7.9,4.6c0.2-0.1,0.4-0.2,0.6-0.3c0.1,0,0.2-0.1,0.3-0.1c0.1,0,0.2-0.1,0.3-0.1s0.3-0.1,0.4-0.1h0.8   c0.2,0,0.4,0,0.6,0.1h0.1c0.2,0,0.4,0.1,0.6,0.1h0.1l0.6,0.2h0.1c0.2,0.1,0.5,0.2,0.7,0.3c0.1,0.1,0.2,0.1,0.3,0.1   c0.1,0.1,0.1,0.1,0.2,0.1l1.5,0.9l0,0l271,156.4c0.3,0.2,0.7,0.2,1,0l6-3.5c0.5-0.3,0.6-1,0.3-1.5   C483.7,168,483.6,167.9,483.5,167.8z"></path>
	<path id="Path_1166" style="fill:#8DB0DA;" d="M490.8,178.4L490.8,178.4V177c0-0.1,0-0.2-0.1-0.3c0-0.1-0.1-0.2-0.1-0.3l0,0   c0-0.1-0.1-0.2-0.1-0.3s-0.1-0.2-0.1-0.3v-0.1c0-0.1,0-0.1-0.1-0.1c0-0.1-0.1-0.2-0.1-0.3s-0.1-0.1-0.1-0.2l0,0   c0-0.1-0.1-0.2-0.1-0.3c0-0.1-0.1-0.2-0.1-0.3c0-0.1,0-0.1-0.1-0.1v-0.1c0,0,0-0.1-0.1-0.1c0,0,0,0,0,0c-0.1-0.1-0.1-0.2-0.1-0.3   s-0.1-0.2-0.1-0.3l0,0v-0.1c-0.1-0.1-0.1-0.2-0.1-0.3s-0.1-0.1-0.1-0.3c0-0.1,0-0.1-0.1-0.1c0,0,0-0.1-0.1-0.1c0,0,0,0,0,0   c-0.1-0.2-0.2-0.3-0.3-0.4c0-0.1-0.1-0.1-0.1-0.1l0,0c-0.1-0.1-0.2-0.3-0.3-0.5l-0.1-0.1c0,0,0-0.1-0.1-0.1c0,0,0,0,0,0   c-0.1-0.1-0.1-0.1-0.1-0.1c-0.1-0.1-0.1-0.2-0.2-0.3l-0.1-0.1c0,0,0-0.1-0.1-0.1c0,0,0,0,0,0l-0.1-0.1c-0.1-0.1-0.2-0.2-0.2-0.3   l-0.2-0.2l0,0l-0.3-0.3c-0.1-0.1-0.2-0.2-0.3-0.2l0,0c-0.1-0.1-0.2-0.2-0.3-0.2c-0.1-0.1-0.2-0.1-0.3-0.2h-0.1   c-0.1-0.1-0.1-0.1-0.2-0.1c-0.1-0.1-0.2-0.1-0.3-0.2l-0.1-0.1l0,0c-0.1-0.1-0.1-0.1-0.1-0.1c-0.1-0.1-0.2-0.1-0.3-0.1l-6.6-3.8   l-8.1,4.9c0,0,7,3.7,7.1,3.7s0.2,0.1,0.3,0.2s0.2,0.1,0.3,0.2s0.2,0.1,0.3,0.2c0.1,0,0.1,0.1,0.1,0.1c0.1,0.1,0.3,0.2,0.4,0.3l0,0   l0.4,0.4c0,0,0.1,0,0.1,0.1c0,0,0,0,0,0c0.1,0.1,0.2,0.3,0.3,0.4l0.1,0.1c0.1,0.1,0.2,0.3,0.3,0.4l0.1,0.1c0.1,0.1,0.2,0.3,0.3,0.4   c0.1,0.1,0.1,0.1,0.1,0.2c0.1,0.1,0.1,0.2,0.2,0.3c0.1,0.1,0.1,0.2,0.2,0.3c0.1,0.1,0.1,0.1,0.1,0.2s0.1,0.1,0.1,0.2   c0.1,0.1,0.1,0.2,0.2,0.3c0,0,0,0.1,0.1,0.1c0,0,0,0,0,0c0.1,0.1,0.1,0.3,0.2,0.5v0.1c0.1,0.2,0.1,0.3,0.2,0.5v0.1   c0.1,0.1,0.1,0.3,0.2,0.5v0.1c0.1,0.1,0.1,0.3,0.1,0.5v0.1c0.1,0.1,0.1,0.3,0.1,0.5v0.1c0.1,0.1,0.1,0.3,0.1,0.5v0.1   c0,0.2,0.1,0.3,0.1,0.5v0.1c0,0.2,0.1,0.3,0.1,0.5v1.2c0,0.1,0,0.2-0.1,0.3c0,0.1,0,0.2-0.1,0.3c0,0.2,0,0.3-0.1,0.5l-28.5,175.2   c-0.1,0.8-3.4,6.2-2.6,5.8l7.8-6.6c1.6-1.4,2.7-3.3,3.1-5.4l27.9-172.4c0.1-0.8,0.3-2.1,0.3-2.1c0-0.1,0-0.2,0.1-0.3v-0.2l0,0v-0.4   C490.8,178.7,490.8,178.6,490.8,178.4L490.8,178.4z"></path>
	<g id="Group_2076" transform="translate(167.275 4.662)">
		<g id="Group_2075">
			<g id="Group_2074">
				<path id="Path_1167" style="fill:#2C4482;" d="M309.8,168.6c3.7,2.2,6.2,7.1,5.6,11l-28.9,178.2c-0.6,3.9-4.1,5.4-7.9,3.3      L5.7,203.5c-3.7-2.2-6.2-7.1-5.6-11L29,14.2c0.6-3.9,4.1-5.4,7.9-3.3L309.8,168.6z"></path>
			</g>
		</g>
	</g>
	<g id="Group_2077" transform="translate(174.809 27.039)">
		<path id="Path_1168" style="fill:#97CBFF;" d="M292.5,157.7c3.5,2,5.9,6.2,5.3,9.6l-26.1,149.5c-0.5,3.3-3.9,4.3-7.4,2.4    L5.4,172.5c-3.5-2-5.9-6.2-5.3-9.6L26.2,13.4C26.7,10,30,9,33.6,11L292.5,157.7z"></path>
	</g>
	<path id="Path_1169" style="fill:#2C4482;" d="M446.2,398.6l-0.1-8.3l-10.7,4.1l-2.3-5.3l-267-154.2c-3.2-1.8-9.6-1.6-13.3,0.5   L37.1,301.9V300l-17.6,8.6l-2.4-1l0.3,8.1c0.1,1.3,0.9,2.5,2,3.1l277.9,160.9c3.2,1.8,8.9,1.8,12.6-0.3l133.1-76.8   C445.1,401.4,446.2,399.9,446.2,398.6z"></path>
	<path id="Path_1170" style="fill:#E1EAF4;" d="M297.2,469.6L19.3,309.1c-3.2-1.8-2.8-5.2,0.9-7.3L153.3,225   c3.7-2.2,9.4-2.4,12.6-0.5l277.9,160.4c3.2,1.8,2.8,5.2-0.9,7.3l-133.1,76.9C306.1,471.2,300.4,471.4,297.2,469.6z"></path>
	<path id="Path_1171" style="fill:#A8C4E5;" d="M193.6,392.1l-67.3-38.8c-0.7-0.5-0.7-1.2,0.2-1.8l32.3-18.6   c0.9-0.5,2.1-0.6,3.1-0.1l67.3,38.8c0.7,0.5,0.7,1.2-0.2,1.8l-32.3,18.6C195.7,392.4,194.6,392.5,193.6,392.1z"></path>
	<g id="Group_2080" transform="translate(87.22 91.247)">
		<path id="Path_1172" style="fill:#4A70D6;" d="M256,15c0,1.7-1.2,2.4-2.7,1.6c-1.6-1-2.6-2.8-2.7-4.7c0-1.7,1.2-2.4,2.7-1.6    C254.9,11.4,255.9,13.1,256,15z"></path>
		<g id="Group_2079" transform="translate(0 135.346)">
			<g id="Group_2078" transform="translate(0 0)">
				<path id="Path_1173" style="fill:#4A70D6;" d="M82.8,27.6c-0.6,0.2-1.3,0.1-1.8-0.2l-16.8-9.7c-0.6-0.3-0.7-0.8-0.3-1.1L75,10.1      c0.6-0.2,1.3-0.1,1.8,0.2L93.7,20c0.6,0.3,0.7,0.8,0.3,1.1L82.8,27.6z"></path>
				<path id="Path_1174" style="fill:#4A70D6;" d="M102.4,56.6c-0.6,0.2-1.3,0.1-1.8-0.2l-16.8-9.7c-0.6-0.3-0.7-0.8-0.3-1.1      l11.2-6.5c0.6-0.2,1.3-0.1,1.8,0.2l16.8,9.7c0.6,0.3,0.7,0.8,0.4,1.1L102.4,56.6z"></path>
				<path id="Path_1175" style="fill:#4A70D6;" d="M92.4,68.7c-0.6,0.2-1.3,0.1-1.8-0.2l-16.9-9.7c-0.6-0.3-0.7-0.8-0.4-1.1      l11.2-6.5c0.6-0.2,1.3-0.1,1.8,0.2l16.9,9.7c0.6,0.3,0.7,0.8,0.4,1.1L92.4,68.7z"></path>
				<path id="Path_1176" style="fill:#4A70D6;" d="M65.7,71c-0.6,0.2-1.3,0.1-1.8-0.2l-16.9-9.7c-0.6-0.3-0.7-0.8-0.3-1.1l11.2-6.5      c0.6-0.2,1.3-0.1,1.8,0.2l16.9,9.7c0.6,0.3,0.7,0.8,0.3,1.1L65.7,71z"></path>
				<path id="Path_1177" style="fill:#4A70D6;" d="M19.2,64.2c-0.6,0.2-1.3,0.1-1.8-0.2L0.6,54.3C0,54-0.2,53.5,0.2,53.2l13.1-7.6      c0.6-0.2,1.3-0.1,1.8,0.2L32,55.5c0.6,0.3,0.7,0.8,0.3,1.1L19.2,64.2z"></path>
				<path id="Path_1178" style="fill:#4A70D6;" d="M48.4,81.1c-0.7,0.2-1.5,0-2.2-0.4L24.1,67.9c-0.8-0.5-1.1-1-0.7-1.2l13.1-7.6      c0.7-0.2,1.5,0,2.2,0.4l22.1,12.8c0.8,0.5,1.1,1,0.7,1.3L48.4,81.1z"></path>
				<path id="Path_1179" style="fill:#4A70D6;" d="M193.6,165c-0.6,0.2-1.2,0.1-1.7-0.3l-16.8-9.7c-0.6-0.3-0.8-0.8-0.5-1l4.8-2.8      c0.6-0.2,1.2-0.1,1.7,0.3l16.8,9.7c0.6,0.3,0.8,0.8,0.5,1L193.6,165z"></path>
				<path id="Path_1180" style="fill:#4A70D6;" d="M216.1,178.3c-0.6,0.2-1.2,0.1-1.7-0.3l-16.8-9.7c-0.6-0.3-0.8-0.8-0.5-1l4.8-2.8      c0.6-0.2,1.2-0.1,1.7,0.3l16.8,9.7c0.6,0.3,0.8,0.8,0.5,1L216.1,178.3z"></path>
				<path id="Path_1181" style="fill:#4A70D6;" d="M240,191.8c-0.6,0.2-1.2,0.1-1.7-0.3l-16.8-9.7c-0.6-0.3-0.8-0.8-0.5-1l4.7-2.7      c0.6-0.2,1.2-0.1,1.7,0.3l16.8,9.7c0.6,0.3,0.8,0.8,0.5,1L240,191.8z"></path>
				<path id="Path_1182" style="fill:#4A70D6;" d="M225.3,173.2c-0.6,0.2-1.2,0.1-1.7-0.3l-16.8-9.8c-0.6-0.3-0.8-0.8-0.5-1l4.7-2.7      c0.6-0.2,1.2-0.1,1.7,0.3l16.8,9.7c0.6,0.3,0.8,0.8,0.5,1L225.3,173.2z"></path>
				<path id="Path_1183" style="fill:#4A70D6;" d="M164.4,148c-0.6,0.2-1.3,0.1-1.8-0.2L52.8,84.5c-0.6-0.3-0.7-0.8-0.4-1.1      l13.1-7.6c0.6-0.2,1.3-0.1,1.8,0.2l109.8,63.3c0.6,0.3,0.7,0.8,0.4,1.1L164.4,148z"></path>
				<path id="Path_1184" style="fill:#4A70D6;" d="M153.1,138.4c-0.3-0.1-0.6-0.3-1-0.5L64.9,87.5c-0.3-0.1-0.6-0.3-0.8-0.5l0.8-0.5      c0.3,0.1,0.6,0.3,1,0.5l87.3,50.4c0.3,0.1,0.6,0.3,0.8,0.5L153.1,138.4z"></path>
				<path id="Path_1185" style="fill:#4A70D6;" d="M45.3,76.9c-0.1,0-0.1,0-0.2-0.1l-12.9-7.5c-0.1-0.1-0.1-0.1-0.1-0.1l0.8-0.5      c0.1,0,0.1,0,0.2,0.1l12.9,7.5c0.1,0.1,0.1,0.1,0.1,0.1L45.3,76.9z"></path>
				<path id="Path_1186" style="fill:#4A70D6;" d="M12.2,56.4L12.2,56.4l-5.6-3.2c0,0-0.1-0.1,0-0.1l0.8-0.5h0.1l5.5,3.2      c0,0,0.1,0.1,0,0.1L12.2,56.4z"></path>
				<path id="Path_1187" style="fill:#4A70D6;" d="M88.8,84.4c-0.6,0.2-1.3,0.1-1.8-0.2l-16.8-9.7c-0.6-0.3-0.7-0.8-0.4-1.1L81,67      c0.6-0.2,1.3-0.1,1.8,0.2l16.8,9.7c0.6,0.3,0.7,0.8,0.3,1.1L88.8,84.4z"></path>
				<path id="Path_1188" style="fill:#4A70D6;" d="M112.1,97.8c-0.6,0.2-1.3,0.1-1.8-0.2l-16.8-9.7c-0.6-0.3-0.7-0.8-0.4-1.1      l11.2-6.5c0.6-0.2,1.3-0.1,1.8,0.2l16.8,9.7c0.6,0.3,0.7,0.8,0.3,1.1L112.1,97.8z"></path>
				<path id="Path_1189" style="fill:#4A70D6;" d="M135.3,111.2c-0.6,0.2-1.3,0.1-1.8-0.2l-16.8-9.7c-0.6-0.3-0.7-0.8-0.3-1.1      l11.2-6.5c0.6-0.2,1.3-0.1,1.8,0.2l16.9,9.7c0.6,0.3,0.7,0.8,0.3,1.1L135.3,111.2z"></path>
				<path id="Path_1190" style="fill:#4A70D6;" d="M158.5,124.6c-0.6,0.2-1.3,0.1-1.8-0.2l-16.9-9.7c-0.6-0.3-0.7-0.8-0.4-1.1      l11.2-6.5c0.6-0.2,1.3-0.1,1.8,0.2l16.9,9.7c0.6,0.3,0.7,0.8,0.3,1.1L158.5,124.6z"></path>
				<path id="Path_1191" style="fill:#4A70D6;" d="M181.7,138c-0.6,0.2-1.3,0.1-1.8-0.2l-16.8-9.7c-0.6-0.3-0.7-0.8-0.3-1.1      l11.2-6.5c0.6-0.2,1.3-0.1,1.8,0.2l16.8,9.7c0.6,0.3,0.7,0.8,0.4,1.1L181.7,138z"></path>
				<path id="Path_1192" style="fill:#4A70D6;" d="M205,151.4c-0.6,0.2-1.3,0.1-1.8-0.2l-16.8-9.7c-0.6-0.3-0.7-0.8-0.4-1.1      l11.2-6.5c0.6-0.2,1.3-0.1,1.8,0.2l16.8,9.7c0.6,0.3,0.7,0.8,0.3,1.1L205,151.4z"></path>
				<path id="Path_1193" style="fill:#4A70D6;" d="M257.3,181.6c-0.6,0.2-1.3,0.1-1.8-0.2l-46-26.5c-0.6-0.3-0.7-0.8-0.3-1.1      l11.2-6.5c0.6-0.2,1.3-0.1,1.8,0.2l46,26.5c0.6,0.3,0.7,0.8,0.3,1.1L257.3,181.6z"></path>
				<path id="Path_1194" style="fill:#4A70D6;" d="M115.6,82c-0.6,0.2-1.3,0.1-1.8-0.2l-16.9-9.7c-0.6-0.3-0.7-0.8-0.3-1.1l11.2-6.5      c0.6-0.2,1.3-0.1,1.8,0.2l16.9,9.7c0.6,0.3,0.7,0.8,0.3,1L115.6,82z"></path>
				<path id="Path_1195" style="fill:#4A70D6;" d="M138.8,95.5c-0.6,0.2-1.3,0.1-1.8-0.2l-16.9-9.7c-0.6-0.3-0.7-0.8-0.3-1l11.2-6.5      c0.6-0.2,1.3-0.1,1.8,0.2l16.9,9.7c0.6,0.3,0.7,0.8,0.3,1.1L138.8,95.5z"></path>
				<path id="Path_1196" style="fill:#4A70D6;" d="M162,108.8c-0.6,0.2-1.3,0.1-1.8-0.2l-16.8-9.7c-0.6-0.3-0.8-0.8-0.4-1.1      l11.2-6.5c0.6-0.2,1.3-0.1,1.8,0.2l16.8,9.7c0.6,0.3,0.7,0.8,0.4,1.1L162,108.8z"></path>
				<path id="Path_1197" style="fill:#4A70D6;" d="M185.3,122.3c-0.6,0.2-1.3,0.1-1.8-0.2l-16.8-9.7c-0.6-0.3-0.7-0.8-0.4-1.1      l11.2-6.5c0.6-0.2,1.3-0.1,1.8,0.2l16.8,9.7c0.6,0.3,0.7,0.8,0.4,1.1L185.3,122.3z"></path>
				<path id="Path_1198" style="fill:#4A70D6;" d="M208.5,135.7c-0.6,0.2-1.3,0.1-1.8-0.2l-16.9-9.8c-0.6-0.3-0.7-0.8-0.3-1.1      l11.2-6.5c0.6-0.2,1.3-0.1,1.8,0.2l16.9,9.7c0.6,0.3,0.7,0.8,0.4,1.1L208.5,135.7z"></path>
				<path id="Path_1199" style="fill:#4A70D6;" d="M231.8,149c-0.6,0.2-1.3,0.1-1.8-0.2l-16.8-9.7c-0.6-0.3-0.8-0.8-0.4-1.1      l11.2-6.5c0.6-0.2,1.3-0.1,1.8,0.2l16.8,9.7c0.6,0.3,0.7,0.8,0.3,1L231.8,149z"></path>
				<path id="Path_1200" style="fill:#4A70D6;" d="M255,162.5c-0.6,0.2-1.3,0.1-1.8-0.2l-16.9-9.7c-0.6-0.3-0.7-0.8-0.3-1l11.2-6.5      c0.6-0.2,1.3-0.1,1.8,0.2l16.9,9.7c0.6,0.3,0.7,0.8,0.3,1.1L255,162.5z"></path>
				<path id="Path_1201" style="fill:#4A70D6;" d="M125.5,69.9c-0.6,0.2-1.3,0.1-1.8-0.2L106.8,60c-0.6-0.3-0.7-0.8-0.3-1.1      l11.2-6.5c0.6-0.2,1.3-0.1,1.8,0.2l16.8,9.7c0.6,0.3,0.7,0.8,0.4,1.1L125.5,69.9z"></path>
				<path id="Path_1202" style="fill:#4A70D6;" d="M148.7,83.4c-0.6,0.2-1.3,0.1-1.8-0.2L130,73.4c-0.6-0.3-0.7-0.8-0.3-1.1      l11.2-6.5c0.6-0.2,1.3-0.1,1.8,0.2l16.8,9.7c0.6,0.3,0.7,0.8,0.3,1L148.7,83.4z"></path>
				<path id="Path_1203" style="fill:#4A70D6;" d="M171.9,96.8c-0.6,0.2-1.3,0.1-1.8-0.2l-16.8-9.7c-0.6-0.3-0.7-0.8-0.3-1.1      l11.2-6.5c0.6-0.2,1.3-0.1,1.8,0.2l16.8,9.7c0.6,0.3,0.7,0.8,0.4,1.1L171.9,96.8z"></path>
				<path id="Path_1204" style="fill:#4A70D6;" d="M195.2,110.2c-0.6,0.2-1.3,0.1-1.8-0.2l-16.9-9.7c-0.6-0.3-0.7-0.8-0.3-1.1      l11.2-6.5c0.6-0.2,1.3-0.1,1.8,0.2l16.9,9.7c0.6,0.3,0.7,0.8,0.3,1L195.2,110.2z"></path>
				<path id="Path_1205" style="fill:#4A70D6;" d="M218.4,123.6c-0.6,0.2-1.3,0.1-1.8-0.2l-16.9-9.7c-0.6-0.3-0.7-0.8-0.3-1.1      l11.2-6.5c0.6-0.2,1.3-0.1,1.8,0.2l16.9,9.7c0.6,0.3,0.7,0.8,0.3,1L218.4,123.6z"></path>
				<path id="Path_1206" style="fill:#4A70D6;" d="M241.7,137c-0.6,0.2-1.3,0.1-1.8-0.2l-16.9-9.8c-0.6-0.3-0.7-0.8-0.3-1.1      l11.2-6.5c0.6-0.2,1.3-0.1,1.8,0.2l16.8,9.7c0.6,0.3,0.7,0.8,0.4,1.1L241.7,137z"></path>
				<path id="Path_1207" style="fill:#4A70D6;" d="M264.9,150.4c-0.6,0.2-1.3,0.1-1.8-0.2l-16.9-9.7c-0.6-0.3-0.7-0.8-0.3-1.1      L257,133c0.6-0.2,1.3-0.1,1.8,0.2l16.9,9.7c0.6,0.3,0.7,0.8,0.3,1.1L264.9,150.4z"></path>
				<path id="Path_1208" style="fill:#4A70D6;" d="M79.1,43.2c-0.6,0.2-1.3,0.1-1.8-0.2L48.7,26.5c-0.6-0.3-0.7-0.8-0.3-1.1L59.6,19      c0.6-0.2,1.3-0.1,1.8,0.2L90,35.7c0.6,0.3,0.7,0.8,0.4,1.1L79.1,43.2z"></path>
				<path id="Path_1209" style="fill:#4A70D6;" d="M303.5,154.9c-0.6,0.2-1.3,0.1-1.8-0.2l-28.6-16.5c-0.6-0.3-0.7-0.8-0.3-1.1      l11.2-6.5c0.6-0.2,1.3-0.1,1.8,0.2l28.6,16.5c0.6,0.3,0.7,0.8,0.3,1.1L303.5,154.9z"></path>
				<path id="Path_1210" style="fill:#4A70D6;" d="M69.2,55.3c-0.6,0.2-1.3,0.1-1.8-0.2L33.3,35.4c-0.6-0.3-0.8-0.8-0.4-1.1      l11.2-6.5c0.6-0.2,1.3-0.1,1.8,0.2L80,47.7c0.6,0.3,0.7,0.8,0.4,1.1L69.2,55.3z"></path>
				<path id="Path_1211" style="fill:#4A70D6;" d="M42.5,57.6c-0.6,0.2-1.3,0.1-1.8-0.2L17.9,44.3c-0.6-0.3-0.7-0.8-0.4-1.1      l11.2-6.5c0.6-0.2,1.3-0.1,1.8,0.2l22.7,13.1c0.6,0.3,0.7,0.8,0.3,1.1L42.5,57.6z"></path>
				<path id="Path_1212" style="fill:#4A70D6;" d="M106,40.9c-0.6,0.2-1.3,0.1-1.8-0.2L87.3,31c-0.6-0.3-0.7-0.8-0.3-1.1l11.2-6.5      c0.6-0.2,1.3-0.1,1.8,0.2l16.8,9.7c0.6,0.3,0.7,0.8,0.4,1.1L106,40.9z"></path>
				<path id="Path_1213" style="fill:#4A70D6;" d="M129.2,54.3c-0.6,0.2-1.3,0.1-1.8-0.2l-16.8-9.7c-0.6-0.3-0.7-0.8-0.3-1.1      l11.2-6.5c0.6-0.2,1.3-0.1,1.8,0.2l16.8,9.7c0.6,0.3,0.7,0.8,0.3,1.1L129.2,54.3z"></path>
				<path id="Path_1214" style="fill:#4A70D6;" d="M152.4,67.7c-0.6,0.2-1.3,0.1-1.8-0.2l-16.9-9.7c-0.6-0.3-0.7-0.8-0.3-1.1      l11.2-6.5c0.6-0.2,1.3-0.1,1.8,0.2l16.8,9.7c0.6,0.3,0.7,0.8,0.3,1.1L152.4,67.7z"></path>
				<path id="Path_1215" style="fill:#4A70D6;" d="M175.6,81.1c-0.6,0.2-1.3,0.1-1.8-0.2l-16.8-9.7c-0.6-0.3-0.7-0.8-0.3-1.1      l11.2-6.5c0.6-0.2,1.3-0.1,1.8,0.2l16.8,9.7c0.6,0.3,0.7,0.8,0.3,1.1L175.6,81.1z"></path>
				<path id="Path_1216" style="fill:#4A70D6;" d="M198.8,94.5c-0.6,0.2-1.3,0.1-1.8-0.2l-16.8-9.7c-0.6-0.3-0.7-0.8-0.3-1.1      l11.2-6.5c0.6-0.2,1.3-0.1,1.8,0.2l16.8,9.7c0.6,0.3,0.7,0.8,0.3,1.1L198.8,94.5z"></path>
				<path id="Path_1217" style="fill:#4A70D6;" d="M222.1,107.9c-0.6,0.2-1.3,0.1-1.8-0.2L203.4,98c-0.6-0.3-0.7-0.8-0.3-1.1      l11.2-6.5c0.6-0.2,1.3-0.1,1.8,0.2l16.9,9.7c0.6,0.3,0.7,0.8,0.3,1.1L222.1,107.9z"></path>
				<path id="Path_1218" style="fill:#4A70D6;" d="M245.3,121.3c-0.6,0.2-1.3,0.1-1.8-0.2l-16.8-9.7c-0.6-0.3-0.7-0.8-0.4-1.1      l11.2-6.5c0.6-0.2,1.3-0.1,1.8,0.2l16.8,9.7c0.6,0.3,0.7,0.8,0.3,1.1L245.3,121.3z"></path>
				<path id="Path_1219" style="fill:#4A70D6;" d="M268.5,134.7c-0.6,0.2-1.3,0.1-1.8-0.2l-16.9-9.8c-0.6-0.3-0.7-0.8-0.3-1.1      l11.2-6.5c0.6-0.2,1.3-0.1,1.8,0.2l16.9,9.8c0.6,0.3,0.7,0.8,0.3,1.1L268.5,134.7z"></path>
				<path id="Path_1220" style="fill:#4A70D6;" d="M282,146.5c-0.3-0.2-0.7-0.3-1-0.3c-0.3-0.1-0.6,0-0.8,0.1l-11.2,6.5      c-0.2,0.1-0.3,0.3-0.2,0.5c0.1,0.2,0.3,0.4,0.5,0.5l4.4,2.5l-14.7,8.5c-0.2,0.1-0.3,0.3-0.2,0.5c0.1,0.2,0.3,0.4,0.5,0.5      l11.3,6.6c0.3,0.2,0.7,0.3,1,0.3c0.3,0.1,0.6,0,0.8-0.1l26.5-15.3c0.2-0.1,0.3-0.3,0.2-0.5c-0.1-0.2-0.3-0.4-0.5-0.5L282,146.5z      "></path>
				<path id="Path_1221" style="fill:#4A70D6;" d="M39.5,52.2c-0.1,0-0.1,0-0.2-0.1l-12.9-7.5c-0.1-0.1-0.1-0.1-0.1-0.1l0.8-0.5      c0.1,0,0.1,0,0.2,0.1l12.9,7.5c0.1,0.1,0.1,0.1,0.1,0.1L39.5,52.2z"></path>
			</g>
		</g>
	</g>
	<g id="Group_2082" transform="translate(0 81.996)">
		<path id="Path_1222" style="fill:#4A70D6;" d="M1.9,167.5l6.9,3.6l2-3.9l-1.6-8.1L1.9,167.5z"></path>
		<path id="Path_1223" style="fill:#2C4482;" d="M125.8,13.6l-6.3-3.3l-9.3,6l8.9,4.5L125.8,13.6z"></path>
		<path id="Path_1224" style="fill:#2C4482;" d="M116.1,10.6L5.4,74.5C2.4,76.2,0,81,0,84.9v78.2c0,4,2.4,5.8,5.4,4.1l110.7-63.9    c3-1.7,5.4-6.4,5.4-10.4V14.8C121.5,10.8,119.1,8.9,116.1,10.6z"></path>
		<g id="Group_2081" transform="translate(6.926 3.666)">
			<path id="Path_1225" style="fill:#4A70D6;" d="M116.1,103.3L5.4,167.2c-3,1.7-5.4-0.1-5.4-4.1V84.9c0-4,2.4-8.7,5.4-10.4     l110.7-63.9c3-1.7,5.4,0.1,5.4,4.1V93C121.5,96.9,119.1,101.6,116.1,103.3z"></path>
			<path id="Path_1226" style="fill:#97CBFF;" d="M29,124.7l-16.4,9.4c-1.4,0.8-2.6-0.1-2.6-2l0,0c0-2,1-3.8,2.6-5l16.4-9.4     c1.4-0.8,2.6,0.1,2.6,2l0,0C31.5,121.7,30.6,123.5,29,124.7z"></path>
			<path id="Path_1227" style="fill:#97CBFF;" d="M56.6,108.7l-16.4,9.4c-1.4,0.8-2.6-0.1-2.6-2l0,0c0-2,1-3.8,2.6-5l16.4-9.4     c1.4-0.8,2.6,0.1,2.6,2l0,0C59.2,105.8,58.2,107.6,56.6,108.7z"></path>
			<path id="Path_1228" style="fill:#97CBFF;" d="M84.3,92.7L68,102.2c-1.4,0.8-2.6-0.1-2.6-2l0,0c0-2,1-3.8,2.6-5l16.4-9.4     c1.4-0.8,2.6,0.1,2.6,2l0,0C86.9,89.7,85.9,91.6,84.3,92.7z"></path>
			<path id="Path_1229" style="fill:#ADD5F7;" d="M90.6,101.1L71,112.5c-1,0.5-1.7-0.1-1.7-1.3l0,0c0-1.3,0.6-2.5,1.7-3.3l19.7-11.3     c1-0.5,1.7,0.1,1.7,1.3l0,0C92.3,99.2,91.7,100.4,90.6,101.1z"></path>
			<path id="Path_1230" style="fill:#97CBFF;" d="M31,77.5L12.2,88.4C11,89.1,10,88.3,10,86.7l0,0c0-1.6,0.8-3.1,2.2-4.1L31,71.8     c1.2-0.7,2.2,0.1,2.2,1.6l0,0C33.1,75.1,32.3,76.5,31,77.5z"></path>
			<path id="Path_1231" style="fill:#EBD265;" d="M29.6,107.3l-16.2,9.4c-1.9,1.1-3.5-0.1-3.5-2.6v-3.6c0-2.5,1.6-5.5,3.5-6.6     l16.2-9.4c1.9-1.1,3.5,0.1,3.5,2.6v3.6C33.1,103.2,31.5,106.2,29.6,107.3z"></path>
			<path id="Path_1232" style="fill:#ADD5F7;" d="M61,125.8l-49.3,28.4c-1,0.5-1.7-0.1-1.7-1.3l0,0c0-1.3,0.6-2.5,1.7-3.3L61,121.2     c1-0.5,1.7,0.1,1.7,1.3l0,0C62.7,123.8,62.1,125,61,125.8z"></path>
			<path id="Path_1233" style="fill:#97CBFF;" d="M112,76.8l-16.4,9.4c-1.4,0.8-2.6-0.1-2.6-2l0,0c0-2,1-3.8,2.6-5l16.4-9.4     c1.4-0.8,2.6,0.1,2.6,2l0,0C114.6,73.8,113.6,75.6,112,76.8z"></path>
			
				<ellipse id="Ellipse_66" transform="matrix(0.5051 -0.8631 0.8631 0.5051 25.1765 108.0404)" style="fill:#97CBFF;" cx="106.8" cy="32.1" rx="11.1" ry="6.4"></ellipse>
		</g>
	</g>
	<path id="Path_1234" style="opacity:0.4;fill:#A8C4E5;enable-background:new    ;" d="M390.5,129.6l76.7,42.5l-2,8.3h0.1   l-51.3,215.9l-77-43.8L390.5,129.6z"></path>
	<path id="Path_1235" style="fill:#FFFFFF;" d="M376,134.5l-50.7,211.3l74.7,43.4L452.7,177L376,134.5z"></path>
	
		<ellipse id="Ellipse_67" transform="matrix(0.8398 -0.5429 0.5429 0.8398 -123.9734 252.527)" style="fill:#EBD265;" cx="365.9" cy="336.3" rx="19.6" ry="26.2"></ellipse>
	<g id="Group_2083" transform="translate(356.125 310.154)">
		<path id="Path_1236" style="fill:#FFFFFF;" d="M16,15.1c2.4,1.3,4.5,3.2,6,5.5l-3.6,2.6c-1.2-1.9-2.9-3.4-4.9-4.3    c-2.2-0.9-3.4-0.5-3.9,1.2c-1.2,3.7,9.2,7.8,7.2,14.3c-1.1,3.5-4.1,5.1-7.9,4.3l-1.2,3.7l-3.8-1.6l1.1-3.7    c-2.1-1.2-3.8-3.1-4.9-5.3L3.8,30c0.8,1.6,2.1,2.8,3.7,3.5c1.8,0.7,3.1,0.5,3.6-1.2c1-3.5-9.3-7.3-7.2-14.2    c1.1-3.5,3.9-5.3,8.1-4.5l1.2-3.7l3.8,1.6L16,15.1z"></path>
	</g>
	<path id="Path_1237" style="fill:#ADD5F7;" d="M381.7,160.8l54.5,30.2c1.1,0.6,2.4,0.3,3.1-0.7c0.2-0.3,0.3-0.6,0.3-0.9l0,0   c0.4-1.8-0.4-3.6-1.9-4.6l-54.5-30.2c-1.1-0.6-2.4-0.3-3.1,0.7c-0.2,0.3-0.3,0.6-0.3,0.9l0,0C379.4,158,380.2,159.8,381.7,160.8z"></path>
	<path id="Path_1238" style="fill:#ADD5F7;" d="M409.7,190.3c0.4-0.9,1.4-1.2,2.3-0.8l21.4,11.9c1.3,0.8,1.9,2.4,1.6,3.9   c-0.1,1-1.1,1.8-2.1,1.6c-0.3,0-0.5-0.1-0.7-0.3l-21.8-12.1c-1-0.5-1.5-1.7-1.2-2.7L409.7,190.3z"></path>
	<path id="Path_1239" style="fill:#ADD5F7;" d="M370.5,201.3c0.4-0.9,1.4-1.2,2.3-0.8l21.4,11.9c1.3,0.8,1.9,2.4,1.6,3.9   c-0.1,1-1.1,1.8-2.1,1.6c-0.3,0-0.5-0.1-0.7-0.3l-21.8-12.1c-1-0.5-1.5-1.7-1.2-2.7L370.5,201.3z"></path>
	<path id="Path_1240" style="fill:#ADD5F7;" d="M365.8,220.8c0.4-0.9,1.4-1.2,2.3-0.8l21.4,11.9c1.3,0.8,1.9,2.4,1.6,3.9   c-0.1,1-1.1,1.8-2.1,1.6c-0.3,0-0.5-0.1-0.7-0.3L366.5,225c-1-0.5-1.5-1.7-1.2-2.7L365.8,220.8z"></path>
	<path id="Path_1241" style="fill:#ADD5F7;" d="M362.1,238.3c0.4-0.9,1.4-1.2,2.3-0.8l21.4,11.9c1.3,0.8,1.9,2.4,1.6,3.9   c-0.1,1-1.1,1.8-2.1,1.6c-0.3,0-0.5-0.1-0.7-0.3l-21.8-12.1c-1-0.5-1.5-1.7-1.2-2.7L362.1,238.3z"></path>
	<path id="Path_1242" style="fill:#ADD5F7;" d="M375.1,172.1c0.4-0.9,1.4-1.2,2.3-0.8l21.4,11.9c1.3,0.8,1.9,2.4,1.6,3.9   c-0.1,1-1.1,1.8-2.1,1.6c-0.3,0-0.5-0.1-0.7-0.3l-21.9-12c-1-0.5-1.5-1.7-1.2-2.7L375.1,172.1z"></path>
	<path id="Path_1243" style="fill:#ADD5F7;" d="M354.2,289.7l45.6,25.3c2.2,1.2,4.4,0.1,5-2.4l2.2-9.4c0.6-2.6-0.5-5.3-2.8-6.8   l-45.6-25.3c-2.2-1.2-4.4-0.1-5,2.4l-2.2,9.4C350.8,285.6,351.9,288.3,354.2,289.7z"></path>
	<path id="Path_1244" style="fill:#ADD5F7;" d="M371.9,190.7l57.8,32.1c0.3,0.2,0.7,0.1,0.9-0.2c0.1-0.1,0.1-0.2,0.1-0.3l0,0   c0.1-0.6-0.1-1.1-0.6-1.4l-57.8-32c-0.3-0.2-0.7-0.1-0.9,0.2c-0.1,0.1-0.1,0.2-0.1,0.3l0,0C371.3,189.9,371.5,190.4,371.9,190.7z"></path>
	<path id="Path_1245" style="fill:#ADD5F7;" d="M356.6,253.2l57.8,32.1c0.3,0.2,0.7,0.1,0.9-0.2c0.1-0.1,0.1-0.2,0.1-0.3l0,0   c0.1-0.6-0.1-1.1-0.6-1.4l-57.8-32c-0.3-0.2-0.7-0.1-0.9,0.2c-0.1,0.1-0.1,0.2-0.1,0.3l0,0C355.9,252.3,356.2,252.9,356.6,253.2z"></path>
	<g id="Group_2096" transform="translate(61.244 218.743)">
		
			<ellipse id="Ellipse_68" transform="matrix(5.427895e-03 -1 1 5.427895e-03 -204.8638 308.3793)" style="opacity:0.4;fill:#A8C4E5;enable-background:new    ;" cx="52.6" cy="257.2" rx="22.2" ry="38.5"></ellipse>
		<path id="Path_1246" style="fill:#2C4482;" d="M42.6,239.7L26.1,243l-2.2,5.7c-0.5,4.1-0.5,6.2,2.2,8.4c2.3,1.8,6.9,0.4,9.4-0.7    L46,250c7.9-4.3,7.3-7.5,6.4-10.2l0,0C51.2,236.9,47.6,237.6,42.6,239.7z"></path>
		<path id="Path_1247" style="fill:#2C4482;" d="M77.5,260l-16-5.4l-4.8,3.8c-2.5,3.3-3.6,5.2-2.3,8.4c1.1,2.7,5.8,3.9,8.5,4.1    l12.4-0.2c9,0.2,10-2.9,10.7-5.6l0,0C86.4,261.9,82.9,260.7,77.5,260z"></path>
		<g id="Group_2084" transform="translate(4.104 43.658)">
			<path id="Path_1248" style="fill:#FFC2B0;" d="M17.2,12.1c-9,13.6-13,31-16.5,46.7c-0.7,3.4-1.1,5.4-0.1,8.8     C3.6,78.7,7,89,8.3,100.5c0.7,5.8,9.8,5.8,9.2,0c-1.1-10.7-3.4-21.3-6.7-31.5c-0.6-1.9-1.4-3.8-2.1-5.7c0.7,1.8-0.2,3,0.1,1.5     c0.2-1,0.4-2,0.6-2.9c3.4-15.1,7.1-32,15.7-45.1C28.4,11.8,20.5,7.2,17.2,12.1L17.2,12.1z"></path>
		</g>
		<path id="Path_1249" style="fill:#88BDEB;" d="M18.7,59.4c-6,10.6-10.5,28.5-14.5,43c-1.5,4-0.5,7.6,2,7.5l8.5,1.2    c2.1-0.1,6-4.6,7-8l10.7-36.9c1.8-6,0.5-11.1-3-12L28.7,54C28.1,51.8,23.3,51.8,18.7,59.4z"></path>
		<path id="Path_1250" style="fill:#283D75;" d="M47.1,126.5L4.7,151c-1.5,0.9-3.4,0.4-4.2-1.1c-0.3-0.5-0.4-1.1-0.4-1.6v-29.5    c0-1.1,0.6-2.1,1.6-2.7L44,91.5c1.5-0.9,3.4-0.4,4.2,1.1c0.3,0.5,0.4,1.1,0.4,1.6v29.5C48.7,124.9,48.1,125.9,47.1,126.5z"></path>
		<path id="Path_1251" style="fill:#FFFFFF;" d="M31.2,118.1c-0.2,3.8-2.2,7.2-5.4,9.3c-3,1.7-5.4,0.3-5.4-3.1    c0.2-3.8,2.2-7.2,5.4-9.3C28.7,113.4,31.2,114.7,31.2,118.1z"></path>
		<path id="Path_1252" style="fill:#FFC2B0;" d="M24.2,145.5l-3.1,1.4c-2.4,1.1-5.2,0-6.2-2.4c0,0,0,0,0,0l0,0    c-1.1-2.4,0-5.2,2.4-6.2c0,0,0,0,0,0l3.1-1.4c2.4-1.1,5.2,0,6.2,2.4c0,0,0,0,0,0l0,0C27.6,141.7,26.5,144.5,24.2,145.5z"></path>
		<path id="Path_1253" style="opacity:0.46;fill:#FFFFFF;enable-background:new    ;" d="M60,26l0.1,1.8c0,0,0.2,5.2-4.9,2.5    c-5.2-2.7-5-9.2-5-9.2S54,20.6,60,26z"></path>
		<path id="Path_1254" style="fill:#513554;" d="M55.1,30.5c6.7,3.5,6.4-2.6,6.4-2.6h0.1l-0.2-2.1c-7.5-6.5-12.2-6.1-12.2-6.1    S48.3,26.9,55.1,30.5z M50.4,21.3c0,0,3.8-0.2,9.6,4.8l0.1,1.5c0,0,0.2,4.5-4.8,2C50.2,26.9,50.4,21.3,50.4,21.3L50.4,21.3z"></path>
		<path id="Path_1255" style="fill:#513554;" d="M64,29l-3.9-1.8l-0.3-2.3l4,1.8L64,29z"></path>
		<path id="Path_1256" style="fill:#513554;" d="M49.5,21.4L48.8,21c-0.4-0.3-0.7-0.7-0.8-1.2l0,0c-0.1-0.5,0.2-0.7,0.6-0.5l0.7,0.3    c0.4,0.3,0.7,0.7,0.8,1.2l0,0C50.1,21.3,49.8,21.6,49.5,21.4z"></path>
		<path id="Path_1257" style="fill:#513554;" d="M75.3,33.2l-0.7-0.3c-0.4-0.3-0.7-0.7-0.8-1.2l0,0c-0.1-0.5,0.2-0.7,0.6-0.5    l0.7,0.3c0.4,0.3,0.7,0.7,0.8,1.2l0,0C76,33.1,75.6,33.3,75.3,33.2z"></path>
		<g id="Group_2089" transform="translate(62.534 16.316)">
			<g id="Group_2088">
				<g id="Group_2086">
					<g id="Group_2085">
						<path id="Path_1258" style="fill:#2C4482;" d="M12.2,15c0,0-5.2-4.9-12.2-5l0.2,2.1h0.1c0.8,4.1,3.7,7.5,7.6,9        C14.5,23.7,12.2,15,12.2,15z M7.6,20c-2.9-1.1-5-3.7-5.6-6.7l-0.3-1.6c5.2,0,9.4,3.9,9.4,3.9S12.6,21.9,7.6,20L7.6,20z"></path>
					</g>
				</g>
				<g id="Group_2087" transform="translate(2.689 2.577)">
					<path id="Path_1259" style="fill:#2C4482;" d="M0.2,11.9L0.2,11.9C0,11.7,0,11.4,0,11.4l1.2-1.3c0.1-0.1,0.3-0.1,0.5,0.1l0,0       c0.1,0.2,0.2,0.5,0.1,0.5L0.6,12C0.6,12.2,0.4,12.1,0.2,11.9z"></path>
				</g>
			</g>
		</g>
		<path id="Path_1260" style="fill:#FCFEFF;" d="M51.1,24L51.1,24c-0.1-0.2-0.2-0.5-0.1-0.5l1.2-1.3c0.1-0.1,0.3-0.1,0.5,0.1l0,0    c0.1,0.2,0.2,0.5,0.1,0.5l-1.2,1.3C51.5,24.3,51.3,24.2,51.1,24z"></path>
		<g id="Group_2092" transform="translate(49.212 140.495)">
			<g id="Group_2091">
				<g id="Group_2090">
					<path id="Path_1261" style="fill:#2C4482;" d="M0.4,18.7c6.1,17.9,6.7,37.2,6.1,55.9c-0.4,14-2.6,28-2.3,42       c0.2,9.2,14.5,9.2,14.3,0c-0.3-14.4,1.9-28.9,2.3-43.2c0.5-19.6-0.3-39.9-6.7-58.5C11.2,6.3-2.6,9.9,0.4,18.7L0.4,18.7z"></path>
				</g>
			</g>
		</g>
		<g id="Group_2094" transform="translate(20.623 124.247)">
			<g id="Group_2093">
				<path id="Path_1262" style="fill:#2C4482;" d="M0.3,18.9c3.2,11.6,4.6,23.6,5.8,35.6c0.7,7.1,1.5,13.9,0.7,20.9      c-1.5,14.2-4.1,28.7-4.1,43c0.1,9.2,14.3,9.2,14.3,0c-0.1-14.5,2.6-29.2,4.1-43.7c0.7-7.3-0.3-14.4-1-21.7      c-1.3-12.8-2.8-25.7-6.2-38C11.6,6.2-2.2,10,0.3,18.9L0.3,18.9z"></path>
			</g>
		</g>
		<path id="Path_1263" style="fill:#2C4482;" d="M32.6,162L32.6,162c1.3,1.5-4.3-5.7-2.6-4.7c3.5,2.1,23.4,15.6,27.4,15.7    c5,0.1,2.1-4.8,5.8-8.1c3.5-3.1,4.3-8.3,4.7-13c0.2-1.3,0-2.6-0.3-3.9c-0.7-1.3-1.6-2.3-2.9-3.1c-8.8-6.7-26.1-23.2-38.4-17.9    C12.1,133.2,26.3,154.9,32.6,162z"></path>
		<path id="Path_1264" style="fill:#DBEFFF;" d="M22.3,56.5c-2.6,3.3-2.3,5.4-2.2,10c0.1,4.5,3.2,8.3,7.5,9.6l44.1,12.4    c0,0,2.5-17-6.2-22.1c-4.7-2.8-11.9-7.1-17.7-10.7C39.4,50.7,28.3,48.8,22.3,56.5z"></path>
		<path id="Path_1265" style="fill:#FFC2B0;" d="M42.4,56l3.7-16.6l10.1,6.9l-3.1,15.1C52.9,63.7,41.7,61.6,42.4,56z"></path>
		<path id="Path_1266" style="fill:#FFC2B0;" d="M48.5,15c0,0-10.2-7.1-10.3,10.1c0,11.5,6.6,22,17,27c6.1,2.9,13.6-0.8,13.9-6.8    c1.4-8.7,1.5-16.8-1.4-23.8c0.4-7.2-4.5-4.6-13.1-5.1L48.5,15z"></path>
		<path id="Path_1267" style="fill:#715154;" d="M42.7,48.5c0,0-11.7-4.3-10.7-20.9c1.2-17.9,17.7-16.4,26.8-17.2    c4.1-0.4,6.9-1,11,2.7c3.8,3.4,0.3,10.9-5.2,11.4c-2.2,0.2-1.2,6-1.6,7.9c-0.7,3.5-3,5.2-3.8,8.7c-0.7,3.3-5.6,8.3-8.6,8.7    C45.2,50.4,42.7,48.5,42.7,48.5z"></path>
		<path id="Path_1268" style="fill:#DBEFFF;" d="M20,136.2c-2.8-1.1-2.1-49.4,0.4-76L70,83.8c-0.3,22.7-3.1,40.6-0.4,68.2L20,136.2z    "></path>
		<path id="Path_1269" style="fill:#DBEFFF;" d="M53,157.1c-12.3-4.5-24-9.4-30.8-17.8c-3.4-2-2.9-5.4,1-7.6l0,0    c3.9-2.2,9.8-2.5,13.2-0.5l30.8,17.8c3.4,2,2.9,5.4-1,7.6l0,0C62.3,158.8,56.4,159.1,53,157.1z"></path>
		<path id="Path_1270" style="fill:#DBEFFF;" d="M70,83.9L61.8,80c-0.3,22.1-3.1,39.9-0.4,67.1l-0.1-0.1c0.1,1.6-1,3.2-3.2,4.4l0,0    c-3.9,2.2-9.8,2.5-13.2,0.5c-5.7-2-11.3-4.4-16.8-7.1c6.8,5.2,15.7,8.8,25,12.2c3.4,2,9.3,1.7,13.2-0.5l0,0    c2.2-1.3,3.3-2.9,3.2-4.4l0.1,0.1C66.9,124.5,69.7,106.6,70,83.9z"></path>
		<path id="Path_1271" style="fill:#2C4482;" d="M75,33.7l-15.2,1.4c-0.5,0.1-1-0.3-1.1-0.9c0,0,0,0,0,0l0,0c-0.1-0.5,0.3-1,0.9-1.1    c0,0,0,0,0,0l15.2-1.4c0.5-0.1,1,0.3,1.1,0.9c0,0,0,0,0,0l0,0C76,33.2,75.6,33.7,75,33.7C75,33.7,75,33.7,75,33.7z"></path>
		<path id="Path_1272" style="fill:#DCEFFF;" d="M59.8,63C48.4,61.3,40.7,68.4,38,52l0,0c1.7-1,3.8-0.5,4.9,1.1    c2,2.9,6.1,4.6,10.7,4.1c1.4-0.1,2.7,0.5,3.5,1.6L59.8,63z"></path>
		<g id="Group_2095" transform="translate(61.634 63.445)">
			<path id="Path_1273" style="fill:#FFC2B0;" d="M0,14.4c0.7,9.5,2.3,18.2,6.2,26.9c2.9,6.2,5.8,15.2,11.9,19.1     C32.1,69.3,47,46.5,53.6,37.8c3.6-4.7-4.4-9.3-7.9-4.6C41.9,38.1,28.1,59.7,21,50.4c-7.6-9.9-10.9-23.9-11.9-36     C8.8,8.6-0.5,8.5,0,14.4L0,14.4z"></path>
		</g>
		<path id="Path_1274" style="fill:#FFFFFF;" d="M57,77.7c2.8,23.5,10.2,38.4,20.4,46c5.4,3,10.5-5.5,8.4-10.7    C75.6,104,72,89.9,71,73.7c-1.5-3.3-5.2-5.1-8.8-4.1l0,0C58.6,70.4,56.3,74,57,77.7z"></path>
		<path id="Path_1275" style="fill:#FFC2B0;" d="M103.4,105.1l1.4,1.1c2.5,2,6.1,1.6,8.1-0.9l4.5-5.6c2-2.5,1.6-6.1-0.9-8.1    l-1.4-1.1c-2.5-2-6.1-1.6-8.1,0.9l-4.5,5.6C100.6,99.5,101,103.1,103.4,105.1z"></path>
		<path id="Path_1276" style="fill:#715154;" d="M53.6,42.6C53,43,51.7,55,61.8,53.1c10-2,8-12,8-12s-8,2.1-10.2-7.8    C57.4,23.3,53.6,42.6,53.6,42.6z"></path>
		<path id="Path_1277" style="fill:#FFC2B0;" d="M62.1,37.7c0.3,2.9-1.2,5.3-3.3,5.4h-0.7c-1.8-0.3-3.3-2.2-3.5-4.8    c-0.3-2.9,1.2-5.3,3.3-5.4C60.1,32.6,61.9,34.8,62.1,37.7z"></path>
	</g>
	<g id="Group_2097" transform="translate(150.997 31.563)">
		<path id="Path_1278" style="fill:#4A70D6;" d="M66.2,52.8L21.9,24.9c-1.2-0.7-2.9-2-3.7-1.2l-0.1,0.9L5.5,31.7L13,44l-1.4,11.9    c-1,7.6,3,16.8,8.7,20.4l20,12.6l8.2,15.6l12.9-6.6l0.6-0.4h0.1c1.8-1.4,3.2-4,3.6-7.4l3.6-29.9C69.6,57.4,68.2,54.1,66.2,52.8z"></path>
		<path id="Path_1279" style="fill:#E1EAF4;" d="M41.6,103.7L8.7,84.4c-5.6-3.3-9.5-12.2-8.6-19.8l3.6-29.9C4.1,31.9,6,30.7,8,31.9    l46.2,27c2,1.2,3.3,4.3,3.1,7l-3.6,29.9C52.6,103.4,47.3,107,41.6,103.7z"></path>
		<path id="Path_1280" style="fill:#2C4482;" d="M20.9,60.5c0.5-3.7,3.5-5.1,6.7-3.2c3.4,2.2,5.4,6.1,5.2,10.1    c-0.5,3.7-3.5,5.1-6.7,3.2C22.8,68.7,20.4,64.2,20.9,60.5z"></path>
		<path id="Path_1281" style="fill:#2C4482;" d="M26.5,59.8l0.4,0.1c1.6,0.6,2.6,3.4,2.2,6.2L28,75.1c-0.3,2.9-2,4.7-3.6,4.1    L24,79.1c-1.6-0.6-2.6-3.4-2.2-6.2l1.2-8.9C23.2,61.1,24.9,59.2,26.5,59.8z"></path>
		<path id="Path_1282" style="fill:#2C4482;" d="M58.1,51.6c1-0.7,1.6-1.8,1.6-3.1c0.3-11.6-1.6-30.9-16.8-37    c-7.3-2.9-12.8-1.2-16.1,0.7c-6.4,3.9-9.8,11.6-11.5,17.5c-0.7,2.6,2.4,4.3,4.7,2.6l2.7-2c0.6-0.5,1.1-1.1,1.4-1.9    c1.4-3.9,3.5-7.9,6.5-9.7c0.8-0.5,3.3-2,8.3,0.1c11.5,4.6,12.8,20.9,12.5,30.8c-0.1,3.1,3.6,4.5,6.2,2.4L58.1,51.6z"></path>
		<path id="Path_1283" style="fill:#FFFFFF;" d="M5.7,73.9L5.7,73.9c-0.9,0-1.7-0.7-1.8-1.6c0-0.1,0-0.2,0-0.3l3.6-29.9    c0.2-1.1,1.1-1.9,2.2-1.9l0,0c0.9,0,1.7,0.7,1.8,1.6c0,0.1,0,0.2,0,0.3L8,72C7.8,73.1,6.8,73.9,5.7,73.9z"></path>
	</g>
	<g id="Group_2108" transform="translate(230.907 87.542)">
		<path id="Path_1284" style="fill:#2C4482;" d="M16,17.4l15.1-5.6l74.1,89l-18.5,6.7L16,17.4z"></path>
		<g id="Group_2107">
			<path id="Path_1285" style="fill:#2C4482;" d="M34,71.4l48.5,27.8c19.1,10.9,40.9-4.3,39.3-27.4l-0.1-2.3     C121,59,115.2,49.4,106.1,44L53,13.5C34.6,2.9,13.4,17.6,15,40l0,0C15.8,53.2,23.1,65.1,34,71.4z"></path>
			<path id="Path_1286" style="fill:#4A70D6;" d="M19.1,76.9l48.5,27.8c19.1,10.9,40.9-4.3,39.3-27.4l-0.1-2.3     c-0.6-10.5-6.4-20.1-15.5-25.5L38.1,18.9C19.6,8.3-1.5,23.1,0.1,45.4l0,0C1,58.7,8.2,70.6,19.1,76.9z"></path>
			
				<ellipse id="Ellipse_69" transform="matrix(0.9404 -0.3401 0.3401 0.9404 -16.2342 38.1481)" style="fill:#D84177;" cx="100.7" cy="65.4" rx="12" ry="17.4"></ellipse>
			
				<ellipse id="Ellipse_70" transform="matrix(0.9404 -0.3401 0.3401 0.9404 -17.0533 36.5994)" style="fill:#EF487C;" cx="95.9" cy="66.9" rx="12" ry="17.4"></ellipse>
			<g id="Group_2098" transform="translate(89.707 46.349)">
				<path id="Path_1287" style="fill:#FFFFFF;" d="M7.9,24.7c0.3-1.6-0.5-3.2-2-3.9c-0.7-0.4-1.6-0.6-2.4-0.3l-1.4-2L3.9,10l8.5,4.7      L11.9,18L6.4,15L5.6,18c0.6,0,1.2,0.2,1.8,0.5c2.9,1.5,4.5,4.7,3.9,7.9c-0.6,3.8-3.5,4.5-6.5,3C2.7,28.3,1,26.4,0,24.2l2-1.6      C2.6,24,3.6,25.2,5,26C6.4,26.8,7.6,26.4,7.9,24.7"></path>
			</g>
			<g id="Group_2106" transform="translate(26.915 23.688)">
				<g id="Group_2104" transform="translate(0 6.54)">
					<g id="Group_2099" transform="translate(1.749 2.285)">
						<path id="Path_1288" style="fill:#FFFFFF;" d="M29.3,56.2L4.3,42.1c-2.9-1.8-4.6-5.1-4.3-8.6l0.3-20c0.4-3.1,3.1-4.4,5.8-2.9        L38.6,29c2.9,1.8,4.6,5.1,4.3,8.6l-5.3,17.2C36.7,57.9,32.1,57.9,29.3,56.2z"></path>
					</g>
					<g id="Group_2100">
						<path id="Path_1289" style="fill:#FFFFFF;" d="M42.8,42.3L3,19.8c-2-1.1-3.3-4.1-2.9-6.7l0,0c0.3-2.6,2.2-3.8,4.2-2.6L44.1,33        c2,1.1,3.3,4.1,2.9,6.7l0,0C46.7,42.3,44.8,43.5,42.8,42.3z"></path>
					</g>
					<g id="Group_2101" transform="translate(9.931 16.766)">
						<path id="Path_1290" style="fill:#97CBFF;" d="M1.8,24.1L1.5,24c-1.1-0.8-1.7-2.1-1.5-3.5l1.2-8.9c0.2-1.4,1.2-2,2.2-1.4        l0.3,0.1c1.1,0.8,1.7,2.1,1.5,3.5L4,22.7C3.8,24,2.8,24.6,1.8,24.1z"></path>
					</g>
					<g id="Group_2102" transform="translate(18.418 21.519)">
						<path id="Path_1291" style="fill:#97CBFF;" d="M1.8,24.1L1.5,24c-1.1-0.8-1.7-2.1-1.5-3.5l1.2-8.9c0.2-1.4,1.2-2,2.2-1.4        l0.3,0.1c1.1,0.8,1.7,2.1,1.5,3.5L4,22.7C3.8,24.1,2.8,24.7,1.8,24.1z"></path>
					</g>
					<g id="Group_2103" transform="translate(26.906 26.34)">
						<path id="Path_1292" style="fill:#97CBFF;" d="M1.8,24.1L1.5,24c-1.1-0.8-1.7-2.1-1.5-3.5l1.2-8.9c0.2-1.4,1.2-2,2.2-1.4        l0.3,0.1c1.1,0.8,1.7,2.1,1.5,3.5L4,22.7C3.8,24.1,2.8,24.7,1.8,24.1z"></path>
					</g>
				</g>
				<g id="Group_2105" transform="translate(11.514)">
					<path id="Path_1293" style="fill:#FFFFFF;" d="M23.1,45.2L23.1,45.2c1.2,0,2.2-0.8,2.4-2L28,24c0.1-0.7-0.2-1.3-0.8-1.7L6,10.3       c-0.7-0.3-1.5-0.3-2.2,0c-0.7,0.3-1.2,1-1.3,1.7L0,31.2c-0.1,0.9,0.6,1.8,1.5,1.9c0.1,0,0.3,0,0.4,0l0,0c1.2,0,2.2-0.8,2.4-2       l2-15.8l17.2,9.8l-2.4,18.1c-0.1,1.1,0.8,2,1.8,2C23,45.2,23.1,45.2,23.1,45.2z"></path>
				</g>
			</g>
		</g>
	</g>
	<g id="Group_2109" transform="translate(234.452 161.661)">
		<path id="Path_1294" style="fill:#4A70D6;" d="M17.1,28.1L6,21.7L8.4,10l11.2,6.4L17.1,28.1z"></path>
		<path id="Path_1295" style="fill:#4A70D6;" d="M59.7,50.4L21.9,28.5l1.4-6.5L61,43.8L59.7,50.4z"></path>
		<path id="Path_1296" style="fill:#4A70D6;" d="M14.1,45.2L2.9,38.8l2.4-11.6l11.1,6.4L14.1,45.2z"></path>
		<path id="Path_1297" style="fill:#4A70D6;" d="M56.6,67.5L18.8,45.7l1.4-6.5L57.9,61L56.6,67.5z"></path>
		<path id="Path_1298" style="fill:#4A70D6;" d="M11.2,62.7L0,56.2l2.4-11.7L13.6,51L11.2,62.7z"></path>
		<path id="Path_1299" style="fill:#4A70D6;" d="M53.7,84.9L16,63.1l1.4-6.5l37.8,21.8L53.7,84.9z"></path>
	</g>
	<g id="Group_2110" transform="translate(428.64 389.052)">
		<path id="Path_1300" style="opacity:0.48;fill:#A8C4E5;enable-background:new    ;" d="M53.5,101.9L2.3,72.3    c-2.2-1.3-3-4.1-1.7-6.4c0.4-0.7,1-1.3,1.7-1.7l51.2-29.6c1.4-0.8,3.2-0.8,4.6,0l51.2,29.6c2.2,1.3,3,4.1,1.7,6.4    c-0.4,0.7-1,1.3-1.7,1.7l-51.2,29.6C56.7,102.7,54.9,102.7,53.5,101.9z"></path>
		<path id="Path_1301" style="fill:#946A6E;" d="M52,98.7L0.3,68.9V39.9L52,39V98.7z"></path>
		<path id="Path_1302" style="fill:#715154;" d="M103.7,68.9L52,98.7V39l51.7,1V68.9z"></path>
		<path id="Path_1303" style="fill:#BD878D;" d="M51.8,69.9L0,39.9L51.8,10l51.9,29.9L51.8,69.9z"></path>
		<path id="Path_1304" style="fill:#E1EAF4;" d="M14.8,77.3l0.7-28.4L27,55.5l-0.8,28.3L14.8,77.3z"></path>
		<path id="Path_1305" style="fill:#FFFFFF;" d="M15.5,48.9l50.9-30.6L77.9,25L27,55.5L15.5,48.9z"></path>
		<path id="Path_1306" style="fill:#FFFFFF;" d="M91.1,38L78,45.6l-5-2.9L86,35.1L91.1,38z"></path>
	</g>
	<path id="Path_1307" style="fill:#DEA749;" d="M420.2,121.6l-24.9,7.9c-1.3,0.5-2.8-0.3-3.2-1.6c-0.2-0.6-0.2-1.2,0.1-1.8   l10.7-27.3L420.2,121.6z"></path>
	<g id="Group_2111" transform="translate(396.741 61.212)">
		<path id="Path_1308" style="fill:#DEA749;" d="M11.7,15.3l10.9-4.1l53.6,64.5l-13.4,4.8L11.7,15.3z"></path>
		<path id="Path_1309" style="fill:#DEA749;" d="M24.6,54.4l35.1,20.2c13.8,7.9,29.6-3.1,28.4-19.8L88,53.1    c-0.5-7.6-4.7-14.5-11.2-18.5L38.4,12.5C25,4.9,9.7,15.5,10.8,31.8l0,0C11.5,41.2,16.8,49.9,24.6,54.4z"></path>
		<path id="Path_1310" style="fill:#EBD265;" d="M13.9,58.4L49,78.5c13.8,7.9,29.6-3.1,28.4-19.8l-0.1-1.6    c-0.5-7.6-4.7-14.5-11.2-18.5L27.6,16.5C14.2,8.8-1,19.5,0.1,35.7l0,0C0.7,45.1,5.8,53.5,13.9,58.4z"></path>
		<path id="Path_1311" style="fill:#5B5B84;" d="M37.8,30.3l11-4l53.6,64.5l-13.4,4.8L37.8,30.3z"></path>
		<path id="Path_1312" style="fill:#DEA749;" d="M50.8,69.4l35.1,20.2c13.8,7.9,29.6-3.1,28.4-19.8l-0.1-1.6    c-0.5-7.6-4.7-14.5-11.2-18.5L64.6,27.5c-13.4-7.7-28.7,3-27.6,19.2l0,0C37.6,56.1,42.8,64.6,50.8,69.4z"></path>
		<path id="Path_1313" style="fill:#EBD265;" d="M40,73.4l35.1,20.1c13.8,7.9,29.6-3.1,28.4-19.8l-0.1-1.6    c-0.5-7.6-4.7-14.5-11.2-18.5l-46-26.3c-13.4-7.7-21.2,7.2-20,23.4l0,0C26.8,60,32,68.5,40,73.4z"></path>
		<path id="Path_1314" style="fill:#FFFFFF;" d="M85.2,66.5l-1.1,1.9c-0.2,0.3-0.6,0.4-1,0.3l-2.4-1c-1-0.4-1.4,0.7-0.7,2l1.8,3.1    c0.3,0.4,0.4,0.9,0.3,1.4l-0.4,2.6c-0.2,1.1,0.9,2.6,1.8,2.5l2.2-0.1c0.5,0.1,0.9,0.3,1.2,0.7l2.2,2.6c0.9,1.1,2,0.8,1.8-0.5    l-0.4-3.1c-0.1-0.4,0-0.8,0.3-1l1.8-1c0.7-0.4,0.3-2-0.7-2.8l-2.4-1.8c-0.4-0.3-0.8-0.8-1-1.3l-1.1-3.2    C87,66.4,85.7,65.6,85.2,66.5z"></path>
		<path id="Path_1315" style="fill:#FFFFFF;" d="M67.4,56.6l-1.1,1.9c-0.2,0.3-0.6,0.4-1,0.3l-2.4-1c-1-0.4-1.4,0.7-0.7,2l1.8,3.1    c0.3,0.4,0.4,0.9,0.3,1.4l-0.4,2.6c-0.2,1.1,0.9,2.6,1.8,2.5l2.2-0.1c0.5,0.1,0.9,0.3,1.2,0.7l2.2,2.6c0.9,1.1,2,0.8,1.8-0.5    L72.7,69c-0.1-0.4,0-0.8,0.3-1l1.8-1c0.7-0.4,0.3-2-0.7-2.8l-2.4-1.8c-0.4-0.3-0.8-0.8-1-1.3L69.7,58    C69.2,56.5,67.8,55.8,67.4,56.6z"></path>
		<path id="Path_1316" style="fill:#FFFFFF;" d="M49.6,46.8l-1.1,1.9c-0.2,0.3-0.6,0.4-1,0.3l-2.4-1c-1-0.4-1.4,0.7-0.7,2l1.8,3.1    c0.3,0.4,0.4,0.9,0.3,1.4L46.1,57c-0.2,1.1,0.9,2.6,1.8,2.5l2.2-0.1c0.5,0.1,0.9,0.3,1.2,0.7l2.2,2.6c0.9,1.1,2,0.8,1.8-0.5    l-0.4-3.1c-0.1-0.4,0-0.8,0.3-1l1.8-1c0.7-0.4,0.3-2-0.7-2.8l-2.4-1.8c-0.4-0.3-0.8-0.8-1-1.3l-1.1-3.2    C51.3,46.7,50,45.9,49.6,46.8z"></path>
		<path id="Path_1317" style="fill:#FFFFFF;" d="M31.7,36.9l-1.1,1.9c-0.2,0.3-0.6,0.4-1,0.3l-2.4-1c-1-0.4-1.4,0.7-0.7,2l1.8,3.1    c0.3,0.4,0.4,0.9,0.3,1.4l-0.4,2.6c-0.2,1.1,0.9,2.6,1.8,2.5l2.2-0.1c0.5,0.1,0.9,0.3,1.2,0.7l2.2,2.6c0.9,1.1,2,0.8,1.8-0.5    L37,49.3c-0.1-0.4,0-0.8,0.3-1l1.8-1c0.7-0.4,0.3-2-0.7-2.8L36,42.8c-0.4-0.3-0.8-0.8-1-1.3l-1.1-3.2    C33.5,36.9,32.2,36.1,31.7,36.9z"></path>
		<path id="Path_1318" style="fill:#FFFFFF;" d="M14.7,27.5l-1.1,1.9c-0.2,0.3-0.6,0.4-1,0.3l-2.4-1c-1-0.4-1.4,0.7-0.7,2l1.8,3.1    c0.3,0.4,0.4,0.9,0.3,1.4l-0.4,2.6c-0.2,1.1,0.9,2.6,1.8,2.5l2.2-0.1c0.5,0.1,0.9,0.3,1.2,0.7l2.2,2.6c0.9,1.1,2,0.8,1.8-0.5    L20,39.9c-0.1-0.4,0-0.8,0.3-1l1.8-1c0.7-0.4,0.3-2-0.7-2.8l-2.4-1.8c-0.4-0.3-0.8-0.8-1-1.3l-1.1-3.2    C16.4,27.5,15.1,26.7,14.7,27.5z"></path>
	</g>
	<g id="Group_2112" transform="translate(362.828 468.679)">
		<path id="Path_1319" style="opacity:0.27;fill:#4A70D6;enable-background:new    ;" d="M70.7,26.3c-14-8.4-36.8-8.8-51.1-0.8    C5.4,33.4,5.2,46.6,19.2,55s36.6,8.8,51.1,1C86.2,47.4,84.7,34.7,70.7,26.3z"></path>
		<path id="Path_1320" style="fill:#C9457B;" d="M59.2,24.4c-13.2-7.9-35-8.3-48.5-0.8c-13.5,7.5-13.7,20-0.5,28s34.8,8.4,48.5,1    C73.9,44.5,72.5,32.4,59.2,24.4z"></path>
		<path id="Path_1321" style="fill:#FF579C;" d="M58.8,16.2c-13.2-7.9-35-8.3-48.5-0.8s-13.7,20-0.5,28s34.8,8.4,48.5,1    C73.4,36.3,72,24.1,58.8,16.2z"></path>
		
			<path id="Path_1322" style="fill:none;stroke:#FFFFFF;stroke-width:10.429;stroke-linecap:round;stroke-linejoin:round;stroke-miterlimit:10;" d="    M26,21.6L22,35.1l31.8-7.2"></path>
	</g>
</g>
</svg>